<?xml version="1.0" encoding="UTF-8"?>
<svg xmlns="http://www.w3.org/2000/svg" xmlns:xlink="http://www.w3.org/1999/xlink" width="110px" height="110px" viewBox="0 0 110 110" version="1.1">
<g id="surface1">
<path style=" stroke:none;fill-rule:nonzero;fill:rgb(94.509804%,33.725491%,29.019609%);fill-opacity:1;" d="M 62.242188 103.011719 C 61.757812 104.015625 60.554688 104.441406 59.546875 103.96875 L 37.019531 93.21875 C 36.015625 92.734375 35.589844 91.53125 36.066406 90.523438 L 38.484375 85.503906 C 38.96875 84.527344 40.136719 84.105469 41.132812 84.550781 L 63.644531 95.296875 C 64.128906 95.527344 64.503906 95.941406 64.683594 96.449219 C 64.859375 96.953125 64.832031 97.511719 64.601562 97.992188 Z M 17.640625 81.730469 C 17.15625 82.738281 15.953125 83.164062 14.945312 82.6875 L 1.234375 76.171875 C 0.230469 75.6875 -0.199219 74.484375 0.277344 73.472656 L 2.695312 68.457031 C 3.183594 67.449219 4.390625 67.023438 5.40625 67.5 L 19.164062 74.078125 C 19.648438 74.308594 20.023438 74.722656 20.199219 75.230469 C 20.378906 75.734375 20.351562 76.292969 20.117188 76.773438 Z M 17.640625 81.730469 "/>
<path style=" stroke:none;fill-rule:nonzero;fill:rgb(94.509804%,33.725491%,29.019609%);fill-opacity:1;" d="M 107.738281 42.582031 C 107.253906 43.59375 106.042969 44.023438 105.03125 43.539062 L 91.246094 36.960938 C 90.242188 36.476562 89.816406 35.273438 90.292969 34.265625 L 92.710938 29.246094 C 93.195312 28.242188 94.398438 27.816406 95.40625 28.292969 L 109.203125 34.871094 C 110.207031 35.359375 110.632812 36.566406 110.15625 37.578125 Z M 71.867188 25.460938 C 71.636719 25.949219 71.222656 26.320312 70.714844 26.5 C 70.210938 26.679688 69.652344 26.648438 69.171875 26.417969 L 46.777344 15.71875 C 45.769531 15.234375 45.335938 14.023438 45.8125 13.007812 L 48.230469 8.003906 C 48.71875 6.996094 49.925781 6.570312 50.9375 7.046875 L 73.328125 17.726562 C 74.335938 18.214844 74.761719 19.421875 74.285156 20.433594 Z M 71.867188 25.460938 "/>
<path style=" stroke:none;fill-rule:nonzero;fill:rgb(94.509804%,33.725491%,29.019609%);fill-opacity:1;" d="M 21.503906 28.800781 L 23.894531 23.789062 C 24.378906 22.777344 25.589844 22.347656 26.601562 22.832031 L 40.363281 29.398438 C 41.375 29.882812 41.804688 31.09375 41.320312 32.105469 L 38.929688 37.113281 C 38.449219 38.128906 37.234375 38.554688 36.222656 38.074219 L 22.460938 31.507812 C 21.449219 31.023438 21.019531 29.8125 21.503906 28.800781 Z M 21.503906 28.800781 "/>
<path style=" stroke:none;fill-rule:nonzero;fill:rgb(94.509804%,33.725491%,29.019609%);fill-opacity:1;" d="M 57.355469 45.914062 L 59.746094 40.90625 C 60.226562 39.894531 61.441406 39.464844 62.453125 39.945312 L 84.964844 50.6875 C 85.976562 51.171875 86.40625 52.382812 85.921875 53.398438 L 83.53125 58.40625 C 83.046875 59.417969 81.835938 59.847656 80.824219 59.363281 L 58.3125 48.621094 C 57.300781 48.140625 56.871094 46.925781 57.355469 45.914062 Z M 57.355469 45.914062 "/>
<path style=" stroke:none;fill-rule:nonzero;fill:rgb(94.509804%,33.725491%,29.019609%);fill-opacity:1;" d="M 69.015625 78.859375 L 71.40625 73.847656 C 71.886719 72.835938 73.101562 72.40625 74.113281 72.890625 L 87.917969 79.476562 C 88.929688 79.960938 89.359375 81.171875 88.875 82.1875 L 86.484375 87.195312 C 86 88.207031 84.789062 88.636719 83.777344 88.152344 L 69.972656 81.566406 C 68.960938 81.082031 68.53125 79.871094 69.015625 78.859375 Z M 69.015625 78.859375 "/>
<path style=" stroke:none;fill-rule:nonzero;fill:rgb(94.509804%,33.725491%,29.019609%);fill-opacity:1;" d="M 24.46875 57.609375 L 26.855469 52.601562 C 27.339844 51.589844 28.550781 51.160156 29.566406 51.644531 L 52.023438 62.359375 C 53.035156 62.84375 53.464844 64.054688 52.980469 65.066406 L 50.589844 70.074219 C 50.105469 71.089844 48.894531 71.519531 47.882812 71.035156 L 25.425781 60.320312 C 24.414062 59.835938 23.984375 58.621094 24.46875 57.609375 Z M 24.46875 57.609375 "/>
<path style=" stroke:none;fill-rule:nonzero;fill:rgb(59.215689%,83.92157%,84.313726%);fill-opacity:1;" d="M 6.6875 59.855469 L 17.425781 37.351562 C 17.910156 36.339844 19.121094 35.910156 20.132812 36.394531 L 25.140625 38.785156 C 26.15625 39.269531 26.582031 40.480469 26.101562 41.492188 L 15.363281 63.992188 C 14.878906 65.003906 13.667969 65.433594 12.65625 64.953125 L 7.648438 62.5625 C 6.636719 62.078125 6.207031 60.867188 6.6875 59.855469 Z M 6.6875 59.855469 "/>
<path style=" stroke:none;fill-rule:nonzero;fill:rgb(59.215689%,83.92157%,84.313726%);fill-opacity:1;" d="M 27.976562 15.261719 L 34.472656 1.644531 C 34.957031 0.632812 36.171875 0.203125 37.183594 0.6875 L 42.191406 3.078125 C 43.203125 3.558594 43.632812 4.773438 43.148438 5.785156 L 36.652344 19.402344 C 36.167969 20.414062 34.957031 20.84375 33.941406 20.359375 L 28.933594 17.972656 C 27.921875 17.488281 27.492188 16.277344 27.976562 15.261719 Z M 27.976562 15.261719 "/>
<path style=" stroke:none;fill-rule:nonzero;fill:rgb(59.215689%,83.92157%,84.313726%);fill-opacity:1;" d="M 67.183594 105.1875 L 73.683594 91.570312 C 74.167969 90.558594 75.378906 90.128906 76.390625 90.609375 L 81.398438 93 C 82.414062 93.484375 82.84375 94.695312 82.359375 95.710938 L 75.859375 109.328125 C 75.378906 110.339844 74.164062 110.769531 73.152344 110.285156 L 68.144531 107.894531 C 67.132812 107.414062 66.703125 106.199219 67.183594 105.1875 Z M 67.183594 105.1875 "/>
<path style=" stroke:none;fill-rule:nonzero;fill:rgb(59.215689%,83.92157%,84.313726%);fill-opacity:1;" d="M 84.230469 69.488281 L 94.964844 46.988281 C 95.449219 45.976562 96.660156 45.546875 97.675781 46.03125 L 102.683594 48.421875 C 103.695312 48.90625 104.125 50.117188 103.640625 51.128906 L 92.902344 73.628906 C 92.421875 74.640625 91.207031 75.070312 90.195312 74.589844 L 85.1875 72.199219 C 84.175781 71.714844 83.746094 70.503906 84.230469 69.488281 Z M 84.230469 69.488281 "/>
<path style=" stroke:none;fill-rule:nonzero;fill:rgb(59.215689%,83.92157%,84.313726%);fill-opacity:1;" d="M 72.566406 36.539062 L 79.066406 22.917969 C 79.550781 21.90625 80.761719 21.476562 81.773438 21.960938 L 86.78125 24.351562 C 87.796875 24.835938 88.222656 26.046875 87.742188 27.058594 L 81.242188 40.675781 C 80.761719 41.691406 79.546875 42.117188 78.535156 41.636719 L 73.527344 39.246094 C 72.515625 38.761719 72.085938 37.550781 72.566406 36.539062 Z M 72.566406 36.539062 "/>
<path style=" stroke:none;fill-rule:nonzero;fill:rgb(59.215689%,83.92157%,84.313726%);fill-opacity:1;" d="M 51.292969 81.140625 L 62.03125 58.640625 C 62.511719 57.628906 63.726562 57.199219 64.738281 57.683594 L 69.746094 60.070312 C 70.757812 60.554688 71.1875 61.765625 70.703125 62.78125 L 59.96875 85.28125 C 59.484375 86.292969 58.273438 86.722656 57.261719 86.238281 L 52.25 83.847656 C 51.238281 83.367188 50.808594 82.152344 51.292969 81.140625 Z M 51.292969 81.140625 "/>
<path style=" stroke:none;fill-rule:nonzero;fill:rgb(59.215689%,83.92157%,84.313726%);fill-opacity:1;" d="M 22.59375 83.914062 L 29.09375 70.292969 C 29.574219 69.28125 30.789062 68.851562 31.800781 69.335938 L 36.808594 71.726562 C 37.820312 72.210938 38.25 73.421875 37.765625 74.433594 L 31.269531 88.050781 C 30.785156 89.066406 29.574219 89.492188 28.558594 89.011719 L 23.550781 86.621094 C 22.539062 86.136719 22.109375 84.925781 22.59375 83.914062 Z M 22.59375 83.914062 "/>
<path style=" stroke:none;fill-rule:nonzero;fill:rgb(59.215689%,83.92157%,84.313726%);fill-opacity:1;" d="M 39.636719 48.203125 L 50.375 25.703125 C 50.855469 24.691406 52.070312 24.261719 53.082031 24.746094 L 58.089844 27.132812 C 59.101562 27.617188 59.53125 28.832031 59.050781 29.84375 L 48.3125 52.34375 C 47.828125 53.355469 46.617188 53.785156 45.605469 53.300781 L 40.59375 50.910156 C 39.582031 50.429688 39.152344 49.214844 39.636719 48.203125 Z M 39.636719 48.203125 "/>
</g>
</svg>
